<svg aria-hidden="true" style="width:0;height:0;position:absolute;overflow:hidden" xmlns="http://www.w3.org/2000/svg"><defs><symbol id="instagram" viewBox="0 0 24 24"><path d="M17 2H7a5 5 0 0 0-5 5v10a5 5 0 0 0 5 5h10a5 5 0 0 0 5-5V7a5 5 0 0 0-5-5Z" stroke-width="2" stroke-linecap="round" stroke-linejoin="round"/><path d="M16 11.37a4 4 0 1 1-7.914 1.173A4 4 0 0 1 16 11.37Z" stroke-width="2" stroke-linecap="round" stroke-linejoin="round"/><path d="M16 11.37a4 4 0 1 1-7.914 1.173A4 4 0 0 1 16 11.37ZM17.5 6.5h.01M17.5 6.5h.01" stroke-width="2" stroke-linecap="round" stroke-linejoin="round"/></symbol><symbol id="twitter" viewBox="0 0 24 24"><path d="M23 3a10.9 10.9 0 0 1-3.14 1.53 4.48 4.48 0 0 0-7.86 3v1A10.66 10.66 0 0 1 3 4s-4 9 5 13a11.64 11.64 0 0 1-7 2c9 5 20 0 20-11.5 0-.279-.028-.556-.08-.83A7.72 7.72 0 0 0 23 3Z" stroke-width="2" stroke-linecap="round" stroke-linejoin="round"/></symbol></defs></svg>