<svg aria-hidden="true" style="width:0;height:0;position:absolute" xmlns="http://www.w3.org/2000/svg" overflow="hidden"><defs><symbol id="logo-icon" viewBox="0 0 24 24"><path d="m2.958 15.057 8.083-13.068.48-.506 6.176 4.118.043 2.486 1.507 2.46-6.66 10.557-9.629-6.047Z" fill="#FCF1E0"/><path d="m16.226 17.91-10.64-6.648m2.935-4.813 10.639 6.648M7.972 19.398l8.802-14.437m3.608 6.13c-2.28-1.424-3.175-2.537-1.708-4.943l-7.22-4.512-8.801 14.438 10.64 6.648 7.09-11.63Z" fill="#FFF" stroke="#FD9222" stroke-width="2" stroke-linecap="round" stroke-linejoin="round"/></symbol><symbol id="instagram-icon" viewBox="0 0 24 24"><path d="M17 2H7a5 5 0 0 0-5 5v10a5 5 0 0 0 5 5h10a5 5 0 0 0 5-5V7a5 5 0 0 0-5-5Z" fill="#FFF" stroke="#111" stroke-width="2" stroke-linecap="round" stroke-linejoin="round"/><path d="M16 11.37a4 4 0 1 1-7.914 1.173A4 4 0 0 1 16 11.37Z" fill="#FFF" stroke="#111" stroke-width="2" stroke-linecap="round" stroke-linejoin="round"/><path d="M16 11.37a4 4 0 1 1-7.914 1.173A4 4 0 0 1 16 11.37ZM17.5 6.5h.01M17.5 6.5h.01" fill="#FFF" stroke="#111" stroke-width="2" stroke-linecap="round" stroke-linejoin="round"/></symbol><symbol id="twitter-icon" viewBox="0 0 24 24"><path d="M23 3a10.9 10.9 0 0 1-3.14 1.53 4.48 4.48 0 0 0-7.86 3v1a10.66 10.66 0 0 1-5.069-1.135c-1.57-.79-3.42-2.672-4.431-4.11C2.5 3.285-1 13 8 17a11.64 11.64 0 0 1-7 2c9 5 20 0 20-11.5 0-.279-.028-.556-.08-.83A7.72 7.72 0 0 0 23 3Z" fill="#FFF" stroke="#111" stroke-width="2" stroke-linecap="round" stroke-linejoin="round"/></symbol></defs></svg>