<svg aria-hidden="true" style="position:absolute;width:0;height:0" xmlns="http://www.w3.org/2000/svg" overflow="hidden">
  <defs>

    <symbol id="logo-icon" viewBox="0 0 24 24">
            <path d="M2.95799 15.0568L11.0406 1.9886L11.5206 1.48303L17.6974 5.6014L17.7397 8.08665L19.2472 10.5463L12.5874 21.1038L2.95799 15.0568Z" fill="#FCF1E0"/>
            <path d="M16.2259 17.9097L5.5868 11.2616M8.52069 6.44905L19.1598 13.0971M7.97248 19.3982L16.7742 4.96051M20.3823 11.0919C18.1025 9.6673 17.2071 8.55395 18.674 6.14767L11.4546 1.63647L2.6529 16.0742L13.2921 22.7223L20.3823 11.0919Z"  fill="#FFF" stroke="#FD9222" stroke-width="2" stroke-linecap="round" stroke-linejoin="round"/>
    </symbol>

    <symbol id="instagram-icon" viewBox="0 0 24 24">
            <path d="M17 2H7C4.23858 2 2 4.23858 2 7V17C2 19.7614 4.23858 22 7 22H17C19.7614 22 22 19.7614 22 17V7C22 4.23858 19.7614 2 17 2Z" fill="#FFF" stroke="#111111" stroke-width="2" stroke-linecap="round" stroke-linejoin="round"/>
            <path d="M16 11.3701C16.1234 12.2023 15.9812 13.0523 15.5937 13.7991C15.2062 14.5459 14.5931 15.1515 13.8416 15.5297C13.0901 15.908 12.2384 16.0397 11.4077 15.906C10.5771 15.7723 9.80971 15.3801 9.21479 14.7852C8.61987 14.1903 8.22768 13.4229 8.09402 12.5923C7.96035 11.7616 8.09202 10.91 8.47028 10.1584C8.84854 9.40691 9.45414 8.7938 10.2009 8.4063C10.9477 8.0188 11.7977 7.87665 12.63 8.00006C13.4789 8.12594 14.2648 8.52152 14.8716 9.12836C15.4785 9.73521 15.8741 10.5211 16 11.3701Z" fill="#FFF" stroke="#111111" stroke-width="2" stroke-linecap="round" stroke-linejoin="round"/>
            <path d="M16 11.3701C16.1234 12.2023 15.9812 13.0523 15.5937 13.7991C15.2062 14.5459 14.5931 15.1515 13.8416 15.5297C13.0901 15.908 12.2384 16.0397 11.4077 15.906C10.5771 15.7723 9.80971 15.3801 9.21479 14.7852C8.61987 14.1903 8.22768 13.4229 8.09402 12.5923C7.96035 11.7616 8.09202 10.91 8.47028 10.1584C8.84854 9.40691 9.45414 8.7938 10.2009 8.4063C10.9477 8.0188 11.7977 7.87665 12.63 8.00006C13.4789 8.12594 14.2648 8.52152 14.8716 9.12836C15.4785 9.73521 15.8741 10.5211 16 11.3701Z" fill="#FFF" stroke="#111111" stroke-width="2" stroke-linecap="round" stroke-linejoin="round"/>
            <path d="M17.5 6.5H17.51" fill="#FFF" stroke="#111111" stroke-width="2" stroke-linecap="round" stroke-linejoin="round"/>
            <path d="M17.5 6.5H17.51" fill="#FFF" stroke="#111111" stroke-width="2" stroke-linecap="round" stroke-linejoin="round"/>
    </symbol>

    <symbol id="twitter-icon" viewBox="0 0 24 24">
            <path d="M23 3.00005C22.0424 3.67552 20.9821 4.19216 19.86 4.53005C19.2577 3.83756 18.4573 3.34674 17.567 3.12397C16.6767 2.90121 15.7395 2.95724 14.8821 3.2845C14.0247 3.61176 13.2884 4.19445 12.773 4.95376C12.2575 5.71308 11.9877 6.61238 12 7.53005V8.53005C10.2426 8.57561 8.50127 8.18586 6.93101 7.39549C5.36074 6.60513 3.51032 4.72313 2.5 3.2845C2.5 3.2845 -1 13 8 17C5.94053 18.398 3.48716 19.099 1 19C10 24 21 19 21 7.50005C20.9991 7.2215 20.9723 6.94364 20.92 6.67005C21.9406 5.66354 22.6608 4.39276 23 3.00005Z" fill="#FFF" stroke="#111111" stroke-width="2" stroke-linecap="round" stroke-linejoin="round"/>   
    </symbol>


    <symbol id="icon-instagram" viewBox="0 0 32 32">
<path  d="M31.968 9.408c-0.074-1.7-0.35-2.87-0.744-3.882-0.424-1.112-1.053-2.060-1.849-2.839l-0.001-0.001c-0.78-0.791-1.724-1.417-2.778-1.824l-0.054-0.018c-1.020-0.394-2.18-0.67-3.88-0.744-1.716-0.080-2.262-0.1-6.602-0.1-4.346 0-4.89 0.020-6.596 0.094-1.7 0.074-2.868 0.35-3.88 0.744-1.112 0.424-2.060 1.053-2.839 1.849l-0.001 0.001c-0.792 0.78-1.419 1.724-1.826 2.778l-0.018 0.054c-0.394 1.020-0.668 2.18-0.744 3.88-0.080 1.714-0.1 2.26-0.1 6.602 0 4.346 0.020 4.89 0.094 6.596 0.074 1.7 0.35 2.87 0.744 3.882 0.406 1.076 1.038 2.038 1.85 2.838 0.8 0.812 1.77 1.444 2.832 1.844 1.020 0.394 2.18 0.67 3.882 0.744 1.706 0.076 2.25 0.094 6.596 0.094 4.344 0 4.888-0.020 6.594-0.094 1.7-0.074 2.87-0.35 3.882-0.744 2.157-0.85 3.832-2.525 4.663-4.627l0.019-0.055c0.394-1.020 0.67-2.18 0.744-3.882 0.076-1.706 0.094-2.25 0.094-6.596 0-4.344-0.006-4.888-0.080-6.594zM29.088 22.472c-0.070 1.564-0.332 2.408-0.552 2.97-0.551 1.4-1.638 2.488-3.002 3.027l-0.036 0.013c-0.562 0.218-1.412 0.48-2.968 0.548-1.688 0.076-2.194 0.094-6.464 0.094s-4.782-0.020-6.464-0.094c-1.564-0.068-2.408-0.33-2.97-0.55-0.721-0.269-1.335-0.676-1.837-1.193l-0.001-0.001c-0.516-0.504-0.923-1.118-1.183-1.804l-0.011-0.034c-0.22-0.562-0.48-1.412-0.55-2.968-0.074-1.688-0.094-2.196-0.094-6.464 0-4.27 0.020-4.782 0.094-6.464 0.070-1.564 0.332-2.408 0.55-2.97 0.256-0.694 0.664-1.324 1.2-1.838 0.52-0.532 1.144-0.938 1.84-1.194 0.56-0.22 1.412-0.48 2.968-0.55 1.688-0.074 2.194-0.094 6.464-0.094 4.276 0 4.78 0.020 6.464 0.094 1.562 0.070 2.406 0.332 2.968 0.55 0.694 0.256 1.326 0.662 1.84 1.194 0.53 0.52 0.936 1.144 1.192 1.84 0.22 0.56 0.482 1.41 0.55 2.968 0.076 1.688 0.094 2.194 0.094 6.464s-0.018 4.77-0.092 6.456z"></path>
<path  d="M16.060 7.782c-4.462 0.102-8.041 3.743-8.041 8.22s3.578 8.118 8.031 8.22l0.009 0c4.462-0.102 8.041-3.743 8.041-8.22s-3.578-8.118-8.031-8.22l-0.009-0zM16.060 21.336c-2.946 0-5.334-2.388-5.334-5.334s2.388-5.334 5.334-5.334v0c2.946 0 5.334 2.388 5.334 5.334s-2.388 5.334-5.334 5.334v0z"></path>
<path  d="M26.524 7.458c0 1.060-0.86 1.92-1.92 1.92s-1.92-0.86-1.92-1.92v0c0-1.060 0.86-1.92 1.92-1.92s1.92 0.86 1.92 1.92v0z"></path>
</symbol>
<symbol id="icon-twitter" viewBox="0 0 32 32">
<path   d="M32 6.078c-1.1 0.494-2.376 0.858-3.712 1.029l-0.068 0.007c1.36-0.817 2.381-2.078 2.873-3.58l0.013-0.046c-1.197 0.723-2.591 1.274-4.076 1.574l-0.084 0.014c-1.2-1.279-2.901-2.076-4.788-2.076-3.623 0-6.56 2.937-6.56 6.56v0c0 0.52 0.044 1.020 0.152 1.496-5.468-0.276-10.278-2.878-13.495-6.828l-0.027-0.034c-0.563 0.949-0.895 2.091-0.895 3.311 0 2.264 1.145 4.261 2.888 5.442l0.023 0.015c-1.092-0.030-2.109-0.325-2.997-0.823l0.033 0.017v0.072c0.004 3.164 2.237 5.806 5.213 6.438l0.043 0.008c-0.501 0.137-1.075 0.216-1.669 0.216-0.018 0-0.036-0-0.054-0l0.003 0c-0.031 0.001-0.067 0.001-0.103 0.001-0.403 0-0.796-0.041-1.176-0.119l0.037 0.006c0.873 2.624 3.273 4.496 6.121 4.57l0.009 0c-2.214 1.744-5.044 2.798-8.12 2.798-0.005 0-0.010 0-0.015 0h0.001c-0.538 0-1.054-0.024-1.57-0.090 2.826 1.846 6.287 2.944 10.004 2.944 0.021 0 0.042-0 0.063-0h-0.003c12.072 0 18.672-10 18.672-18.668 0-0.29-0.010-0.57-0.024-0.848 1.299-0.937 2.391-2.066 3.258-3.359l0.030-0.047z"></path>
</symbol>

    <!-- Hamburger Menu Icons -->
    <symbol id="hamburger-open-icon" viewBox="0 0 32 22">
      <path d="M1.34766 20.0431H30.8861M1.34766 10.7354H30.8861M1.34766 1.42773H30.8861" stroke="#2E2F42" stroke-width="3" stroke-linecap="round"></path>/> 

    </symbol>

    <symbol id="hamburger-close-icon" viewBox="0 0 8 8">
     <path d="M8 0.805714L7.19429 0L4 3.19429L0.805714 0L0 0.805714L3.19429 4L0 7.19429L0.805714 8L4 4.80571L7.19429 8L8 7.19429L4.80571 4L8 0.805714Z" />
    </symbol>

  </defs>
</svg>